<svg aria-hidden="true" style="position: absolute; width: 0; height: 0; overflow: hidden;" version="1.1" xmlns="http://www.w3.org/2000/svg" xmlns:xlink="http://www.w3.org/1999/xlink">
<defs>
<symbol id="icon-menu" viewBox="0 0 24 24">
<path d="M3 13h18c0.552 0 1-0.448 1-1s-0.448-1-1-1h-18c-0.552 0-1 0.448-1 1s0.448 1 1 1zM3 7h18c0.552 0 1-0.448 1-1s-0.448-1-1-1h-18c-0.552 0-1 0.448-1 1s0.448 1 1 1zM3 19h18c0.552 0 1-0.448 1-1s-0.448-1-1-1h-18c-0.552 0-1 0.448-1 1s0.448 1 1 1z"></path>
</symbol>
<symbol id="icon-angular" viewBox="0 0 32 32">
<path fill="#dd0031" style="fill: var(--color1, #dd0031)" d="M13.24 16.86h5.512l-2.757-6.54zM15.995 0.012l-15.080 5.305 2.3 19.68 12.78 6.991 12.784-6.984 2.299-19.684zM25.405 24.408h-3.515l-1.893-4.668h-8.004l-1.893 4.668h-3.517l9.413-20.864z"></path>
</symbol>
<symbol id="icon-blackberry" viewBox="0 0 32 32">
<path d="M2.733 4.72l-1.173 5.547h4.373c3.36 0 4.373-1.64 4.373-3.12 0-1.093-0.627-2.427-3.36-2.427h-4.213zM14.053 4.72l-1.173 5.547h4.373c3.413 0 4.373-1.64 4.373-3.12 0-1.093-0.627-2.427-3.36-2.427h-4.213zM24.427 9.64l-1.24 5.547h4.373c3.427 0 4.44-1.56 4.44-3.12 0-1.093-0.627-2.427-3.333-2.427h-4.24zM1.173 13.067l-1.173 5.547h4.373c3.427 0 4.373-1.64 4.373-3.12 0-1.093-0.627-2.427-3.36-2.427h-4.213zM12.573 13.067l-1.24 5.547h4.36c3.427 0 4.453-1.64 4.453-3.12 0-1.093-0.627-2.427-3.36-2.427h-4.227zM22.787 18.307l-1.16 5.533h4.373c3.333 0 4.36-1.56 4.36-3.12 0-1.093-0.627-2.413-3.347-2.413h-4.227zM10.933 21.733l-1.173 5.547h4.373c3.347 0 4.36-1.64 4.36-3.12 0-1.093-0.613-2.427-3.347-2.427z"></path>
</symbol>
<symbol id="icon-css3" viewBox="0 0 32 32">
<path fill="#1572b6" style="fill: var(--color2, #1572b6)" d="M2 0h28l-2.547 28.751-11.484 3.249-11.42-3.251zM24.787 5.884l-17.573-0.004 0.284 3.496 13.5 0.003-0.34 3.621h-8.853l0.32 3.431h8.243l-0.488 4.697-3.88 1.072-3.941-1.080-0.251-2.813h-3.48l0.387 5.14 7.287 2.271 7.164-2.040z"></path>
</symbol>
<symbol id="icon-html5" viewBox="0 0 32 32">
<path fill="#e34f26" style="fill: var(--color3, #e34f26)" d="M2 0h28l-2.547 28.751-11.484 3.249-11.419-3.251zM11.375 13l-0.309-3.624 13.412 0.004 0.307-3.496-17.568-0.004 0.931 10.68h12.168l-0.435 4.568-3.88 1.072-3.94-1.080-0.251-2.813h-3.479l0.44 5.561 7.229 1.933 7.172-1.924 0.992-10.876z"></path>
</symbol>
<symbol id="icon-instagram" viewBox="0 0 32 32">
<path fill="#e4405f" style="fill: var(--color4, #e4405f)" d="M16 0c-4.347 0-4.889 0.020-6.596 0.096-1.704 0.080-2.864 0.348-3.884 0.744-1.052 0.408-1.945 0.956-2.835 1.845s-1.439 1.781-1.845 2.835c-0.396 1.020-0.665 2.18-0.744 3.884-0.080 1.707-0.096 2.249-0.096 6.596s0.020 4.889 0.096 6.596c0.080 1.703 0.348 2.864 0.744 3.884 0.408 1.051 0.956 1.945 1.845 2.835 0.889 0.888 1.781 1.439 2.835 1.845 1.021 0.395 2.181 0.665 3.884 0.744 1.707 0.080 2.249 0.096 6.596 0.096s4.889-0.020 6.596-0.096c1.703-0.080 2.864-0.349 3.884-0.744 1.051-0.408 1.945-0.957 2.835-1.845 0.888-0.889 1.439-1.78 1.845-2.835 0.395-1.020 0.665-2.181 0.744-3.884 0.080-1.707 0.096-2.249 0.096-6.596s-0.020-4.889-0.096-6.596c-0.080-1.703-0.349-2.865-0.744-3.884-0.408-1.052-0.957-1.945-1.845-2.835-0.889-0.889-1.78-1.439-2.835-1.845-1.020-0.396-2.181-0.665-3.884-0.744-1.707-0.080-2.249-0.096-6.596-0.096zM16 2.88c4.271 0 4.78 0.021 6.467 0.095 1.56 0.073 2.407 0.332 2.969 0.553 0.749 0.289 1.28 0.636 1.843 1.195 0.559 0.56 0.905 1.092 1.195 1.841 0.219 0.563 0.48 1.409 0.551 2.969 0.076 1.688 0.093 2.195 0.093 6.467s-0.020 4.78-0.099 6.467c-0.081 1.56-0.341 2.407-0.561 2.969-0.299 0.749-0.639 1.28-1.199 1.843-0.559 0.559-1.099 0.905-1.84 1.195-0.56 0.219-1.42 0.48-2.98 0.551-1.699 0.076-2.199 0.093-6.479 0.093-4.281 0-4.781-0.020-6.479-0.099-1.561-0.081-2.421-0.341-2.981-0.561-0.759-0.299-1.28-0.639-1.839-1.199-0.561-0.559-0.92-1.099-1.2-1.84-0.22-0.56-0.479-1.42-0.56-2.98-0.060-1.68-0.081-2.199-0.081-6.459 0-4.261 0.021-4.781 0.081-6.481 0.081-1.56 0.34-2.419 0.56-2.979 0.28-0.76 0.639-1.28 1.2-1.841 0.559-0.559 1.080-0.919 1.839-1.197 0.56-0.221 1.401-0.481 2.961-0.561 1.7-0.060 2.2-0.080 6.479-0.080zM16 7.784c-4.54 0-8.216 3.68-8.216 8.216 0 4.54 3.68 8.216 8.216 8.216 4.54 0 8.216-3.68 8.216-8.216 0-4.54-3.68-8.216-8.216-8.216zM16 21.333c-2.947 0-5.333-2.387-5.333-5.333s2.387-5.333 5.333-5.333 5.333 2.387 5.333 5.333-2.387 5.333-5.333 5.333zM26.461 7.46c0 1.060-0.861 1.92-1.92 1.92-1.060 0-1.92-0.861-1.92-1.92s0.861-1.919 1.92-1.919c1.057-0.001 1.92 0.86 1.92 1.919z"></path>
</symbol>
<symbol id="icon-invision" viewBox="0 0 32 32">
<path fill="#f36" style="fill: var(--color5, #f36)" d="M29.1 0h-26.2c-1.6 0-2.9 1.3-2.9 2.9v26.2c0 1.6 1.3 2.9 2.9 2.9h26.2c1.6 0 2.9-1.3 2.9-2.9v-26.2c0-1.6-1.3-2.9-2.9-2.9zM10.693 6.223c1.064 0 1.957 0.84 1.957 1.92 0 1.093-0.893 1.925-1.957 1.925v0.036c-1.071 0-1.939-0.867-1.939-1.94s0.867-1.94 1.939-1.941zM23.781 24.643c-1.979 0-2.939-1.18-2.939-2.787 0-0.461 0.059-0.951 0.2-1.44l0.947-3.393c0.117-0.373 0.147-0.72 0.147-1.033 0-1.093-0.667-1.753-1.728-1.753-1.351 0-2.24 0.969-2.7 2.84l-1.84 7.38h-3.219l0.576-2.32c-0.944 1.555-2.26 2.513-3.88 2.513-1.956 0-2.876-1.123-2.876-2.817 0.005-0.487 0.063-0.973 0.173-1.447v0.003l1.467-5.987h-2.276l0.691-2.54h5.467l-2.16 8.54c-0.14 0.547-0.2 1-0.2 1.315 0 0.547 0.269 0.707 0.689 0.805 0.26 0.053 2.3 0.016 3.413-2.453l1.413-5.667h-2.297l0.693-2.5h4.96l-0.64 2.88c0.863-1.6 2.583-3.14 4.283-3.14 1.8 0 3.3 1.3 3.3 3.76 0 0.712-0.107 1.42-0.32 2.1l-0.92 3.301c-0.080 0.339-0.139 0.62-0.139 0.88 0 0.579 0.24 0.86 0.659 0.86s0.98-0.32 1.6-2.080l1.257 0.48c-0.74 2.619-2.101 3.699-3.801 3.7z"></path>
</symbol>
<symbol id="icon-javascript" viewBox="0 0 32 32">
<path fill="#f7df1e" style="fill: var(--color6, #f7df1e)" d="M0 0h32v32h-32zM29.379 24.368c-0.233-1.46-1.184-2.687-4.004-3.831-0.981-0.46-2.072-0.78-2.396-1.52-0.121-0.44-0.14-0.68-0.061-0.94 0.2-0.861 1.22-1.12 2.020-0.88 0.52 0.16 1 0.56 1.301 1.2 1.379-0.901 1.379-0.901 2.34-1.5-0.36-0.56-0.539-0.801-0.781-1.040-0.84-0.94-1.959-1.42-3.779-1.379l-0.94 0.119c-0.901 0.22-1.76 0.7-2.28 1.34-1.52 1.721-1.081 4.721 0.759 5.961 1.82 1.36 4.481 1.659 4.821 2.94 0.32 1.56-1.16 2.060-2.621 1.88-1.081-0.24-1.68-0.781-2.34-1.781l-2.44 1.401c0.28 0.64 0.6 0.919 1.080 1.479 2.32 2.341 8.12 2.221 9.161-1.339 0.039-0.12 0.32-0.94 0.099-2.2zM17.401 14.708h-2.997c0 2.584-0.012 5.152-0.012 7.74 0 1.643 0.084 3.151-0.184 3.615-0.44 0.919-1.573 0.801-2.088 0.64-0.528-0.261-0.796-0.621-1.107-1.14-0.084-0.14-0.147-0.261-0.169-0.261l-2.433 1.5c0.407 0.84 1 1.563 1.765 2.023 1.14 0.68 2.672 0.9 4.276 0.54 1.044-0.301 1.944-0.921 2.415-1.881 0.68-1.24 0.536-2.76 0.529-4.461 0.016-2.739 0-5.479 0-8.239z"></path>
</symbol>
<symbol id="icon-twitter" viewBox="0 0 32 32">
<path fill="#1da1f2" style="fill: var(--color7, #1da1f2)" d="M31.939 6.092c-1.18 0.519-2.44 0.872-3.767 1.033 1.352-0.815 2.392-2.099 2.884-3.631-1.268 0.74-2.673 1.279-4.169 1.579-1.195-1.279-2.897-2.079-4.788-2.079-3.623 0-6.56 2.937-6.56 6.556 0 0.52 0.060 1.020 0.169 1.499-5.453-0.257-10.287-2.876-13.521-6.835-0.569 0.963-0.888 2.081-0.888 3.3 0 2.28 1.16 4.284 2.917 5.461-1.076-0.035-2.088-0.331-2.971-0.821v0.081c0 3.18 2.257 5.832 5.261 6.436-0.551 0.148-1.132 0.228-1.728 0.228-0.419 0-0.82-0.040-1.221-0.115 0.841 2.604 3.26 4.503 6.139 4.556-2.24 1.759-5.079 2.807-8.136 2.807-0.52 0-1.039-0.031-1.56-0.089 2.919 1.859 6.357 2.945 10.076 2.945 12.072 0 18.665-9.995 18.665-18.648 0-0.279 0-0.56-0.020-0.84 1.281-0.919 2.4-2.080 3.28-3.397z"></path>
</symbol>
<symbol id="icon-arrow-up" viewBox="0 0 32 32">
<path d="M16 1l-15 15h9v16h12v-16h9z"></path>
</symbol>
</defs>
</svg>
